<?xml version="1.0" encoding="UTF-8" standalone="no"?>
<!-- Created with Inkscape (http://www.inkscape.org/) -->

<svg
   width="64"
   height="64"
   viewBox="0 0 16.933333 16.933334"
   version="1.1"
   id="svg5"
   inkscape:version="1.1.2 (b8e25be833, 2022-02-05)"
   sodipodi:docname="favicon.svg"
   xmlns:inkscape="http://www.inkscape.org/namespaces/inkscape"
   xmlns:sodipodi="http://sodipodi.sourceforge.net/DTD/sodipodi-0.dtd"
   xmlns:xlink="http://www.w3.org/1999/xlink"
   xmlns="http://www.w3.org/2000/svg"
   xmlns:svg="http://www.w3.org/2000/svg">
  <sodipodi:namedview
     id="namedview7"
     pagecolor="#ffffff"
     bordercolor="#666666"
     borderopacity="1.0"
     inkscape:pageshadow="2"
     inkscape:pageopacity="0.0"
     inkscape:pagecheckerboard="0"
     inkscape:document-units="mm"
     showgrid="false"
     units="px"
     inkscape:snap-bbox="true"
     inkscape:snap-page="true"
     inkscape:object-nodes="false"
     inkscape:bbox-nodes="true"
     inkscape:bbox-paths="true"
     inkscape:snap-bbox-edge-midpoints="true"
     inkscape:snap-bbox-midpoints="true"
     inkscape:snap-global="true"
     inkscape:zoom="3.3994949"
     inkscape:cx="45.153767"
     inkscape:cy="40.888427"
     inkscape:window-width="1366"
     inkscape:window-height="705"
     inkscape:window-x="-8"
     inkscape:window-y="-8"
     inkscape:window-maximized="1"
     inkscape:current-layer="layer1" />
  <defs
     id="defs2">
    <linearGradient
       inkscape:collect="always"
       id="linearGradient2610">
      <stop
         style="stop-color:#ff2959;stop-opacity:1"
         offset="0"
         id="stop2606" />
      <stop
         style="stop-color:#ffffff;stop-opacity:0.45522389"
         offset="1"
         id="stop2608" />
    </linearGradient>
    <radialGradient
       inkscape:collect="always"
       xlink:href="#linearGradient2610"
       id="radialGradient2412"
       cx="11.799387"
       cy="1.7990295"
       fx="11.799386"
       fy="1.7990295"
       r="8.4666662"
       gradientUnits="userSpaceOnUse"
       gradientTransform="matrix(-0.03989023,1.9441577,-2.3579209,-0.04834224,12.59201,-13.841833)" />
  </defs>
  <g
     inkscape:label="Layer 1"
     inkscape:groupmode="layer"
     id="layer1">
    <rect
       style="fill:url(#radialGradient2412);fill-opacity:1;stroke:#000000;stroke-width:0.513136;stroke-linecap:round;stroke-linejoin:round;stroke-miterlimit:4;stroke-dasharray:none;stroke-opacity:1;paint-order:fill markers stroke;stop-color:#000000"
       id="rect912"
       width="16.420198"
       height="16.420198"
       x="0.2565681"
       y="0.2565681"
       rx="3.8788631"
       ry="3.878787" />
    <path
       sodipodi:type="spiral"
       style="fill:none;fill-rule:evenodd;stroke:#ffffff;stroke-width:3.4958;stroke-miterlimit:4;stroke-dasharray:none;stroke-opacity:0.876866"
       id="path1300-3"
       sodipodi:cx="80.011887"
       sodipodi:cy="29.121973"
       sodipodi:expansion="1.53"
       sodipodi:revolution="4"
       sodipodi:radius="23.565977"
       sodipodi:argument="-19.274117"
       sodipodi:t0="0"
       transform="matrix(0.36490505,0,0,0.33826585,-20.651076,-0.07698779)"
       d="m 80.011887,29.121973 c 0.156348,-0.07068 0.167425,0.237776 0.139571,0.308749 -0.165633,0.422032 -0.754831,0.323816 -1.031194,0.09431 -0.652936,-0.542227 -0.41767,-1.551549 0.14209,-2.061122 0.99794,-0.908467 2.552983,-0.492912 3.324412,0.494077 1.192775,1.526073 0.557577,3.72635 -0.937236,4.786657 -2.12052,1.504137 -5.051232,0.615105 -6.425889,-1.458128 -1.840642,-2.776021 -0.667327,-6.513358 2.047964,-8.226393 3.488244,-2.200679 8.102001,-0.715364 10.176168,2.700427 2.582916,4.253614 0.759973,9.808703 -3.410698,12.265645 -5.06914,2.986232 -11.626564,0.801692 -14.486955,-4.174942 -3.409668,-5.932288 -0.840926,-13.549816 4.990019,-16.833475 6.840871,-3.852393 15.573536,-0.877984 19.299524,5.853294 4.313677,7.792982 0.913114,17.693459 -6.76251,21.880157 C 78.290208,49.544103 67.171309,45.69775 62.506128,37.035519 57.216733,27.214256 61.527768,14.82815 71.217312,9.6672674 82.111908,3.8645462 95.812372,8.6584881 101.48567,19.414666" />
    <path
       sodipodi:type="spiral"
       style="fill:none;fill-rule:evenodd;stroke:#000000;stroke-width:3.4958;stroke-miterlimit:4;stroke-dasharray:none"
       id="path1300"
       sodipodi:cx="80.011887"
       sodipodi:cy="29.121973"
       sodipodi:expansion="1.53"
       sodipodi:revolution="4"
       sodipodi:radius="23.565977"
       sodipodi:argument="-19.274117"
       sodipodi:t0="0"
       d="m 80.011887,29.121973 c 0.156348,-0.07068 0.167425,0.237776 0.139571,0.308749 -0.165633,0.422032 -0.754831,0.323816 -1.031194,0.09431 -0.652936,-0.542227 -0.41767,-1.551549 0.14209,-2.061122 0.99794,-0.908467 2.552983,-0.492912 3.324412,0.494077 1.192775,1.526073 0.557577,3.72635 -0.937236,4.786657 -2.12052,1.504137 -5.051232,0.615105 -6.425889,-1.458128 -1.840642,-2.776021 -0.667327,-6.513358 2.047964,-8.226393 3.488244,-2.200679 8.102001,-0.715364 10.176168,2.700427 2.582916,4.253614 0.759973,9.808703 -3.410698,12.265645 -5.06914,2.986232 -11.626564,0.801692 -14.486955,-4.174942 -3.409668,-5.932288 -0.840926,-13.549816 4.990019,-16.833475 6.840871,-3.852393 15.573536,-0.877984 19.299524,5.853294 4.313677,7.792982 0.913114,17.693459 -6.76251,21.880157 C 78.290208,49.544103 67.171309,45.69775 62.506128,37.035519 57.216733,27.214256 61.527768,14.82815 71.217312,9.6672674 82.111908,3.8645462 95.812372,8.6584881 101.48567,19.414666"
       transform="matrix(0.38157404,0,0,0.33422332,-22.31077,-0.55989904)" />
  </g>
</svg>
