<?xml version="1.0" encoding="UTF-8" standalone="no"?>
<!-- Created with Inkscape (http://www.inkscape.org/) -->

<svg
   width="25"
   height="45"
   viewBox="0 0 6.614583 11.90625"
   version="1.1"
   id="svg1"
   inkscape:version="1.3 (0e150ed6c4, 2023-07-21)"
   sodipodi:docname="3.svg"
   xmlns:inkscape="http://www.inkscape.org/namespaces/inkscape"
   xmlns:sodipodi="http://sodipodi.sourceforge.net/DTD/sodipodi-0.dtd"
   xmlns="http://www.w3.org/2000/svg"
   xmlns:svg="http://www.w3.org/2000/svg">
  <sodipodi:namedview
     id="namedview1"
     pagecolor="#ffffff"
     bordercolor="#666666"
     borderopacity="1.0"
     inkscape:showpageshadow="2"
     inkscape:pageopacity="0.0"
     inkscape:pagecheckerboard="0"
     inkscape:deskcolor="#d1d1d1"
     inkscape:document-units="mm"
     inkscape:zoom="4"
     inkscape:cx="82.625"
     inkscape:cy="36.375"
     inkscape:window-width="1366"
     inkscape:window-height="705"
     inkscape:window-x="-8"
     inkscape:window-y="-8"
     inkscape:window-maximized="1"
     inkscape:current-layer="layer1" />
  <defs
     id="defs1" />
  <g
     inkscape:label="Layer 1"
     inkscape:groupmode="layer"
     id="layer1"
     transform="translate(-4.6636251,-6.4064988)">
    <path
       style="font-size:9.87778px;line-height:1.25;font-family:'BIZ UDゴシック';-inkscape-font-specification:'BIZ UDゴシック';text-align:center;letter-spacing:0px;word-spacing:0px;text-anchor:middle;stroke-width:0.264583"
       d="m 7.0087017,11.780847 h 0.573953 q 0.6752389,0 1.0610897,-0.458198 0.3135037,-0.381028 0.3135037,-1.094852 0,-0.5112518 -0.250803,-0.8536944 -0.32315,-0.4437284 -0.8922799,-0.4437284 -0.7813479,0 -1.287777,0.8729874 L 6.053721,9.243878 Q 6.3431091,8.7760339 6.8205994,8.5011152 7.3270286,8.206904 7.8672197,8.206904 q 0.752409,0 1.2829538,0.4581978 0.6559463,0.5643068 0.6559463,1.5482262 0,0.844049 -0.4244358,1.316716 -0.4196128,0.458198 -0.9887427,0.56913 v 0.03859 q 1.5530494,0.342442 1.5530494,2.064301 0,0.897104 -0.4726672,1.519288 -0.5980687,0.790994 -1.6736277,0.790994 -1.1286136,0 -1.8858457,-1.114144 l 0.4919597,-0.564307 q 0.5546605,0.916396 1.3842397,0.916396 0.5980687,0 1.0128583,-0.535368 0.2942112,-0.381028 0.2942112,-1.051444 0,-0.863341 -0.4340821,-1.273307 -0.4147896,-0.40032 -1.0996747,-0.40032 H 7.0087017 Z"
       id="text1"
       aria-label="3" />
  </g>
</svg>
