<?xml version="1.0" encoding="UTF-8" standalone="no"?>
<!-- Created with Inkscape (http://www.inkscape.org/) -->

<svg
   width="256"
   height="256"
   viewBox="0 0 67.733332 67.733333"
   version="1.1"
   id="svg1"
   inkscape:version="1.3 (0e150ed6c4, 2023-07-21)"
   sodipodi:docname="mainicon.svg"
   inkscape:export-filename="mainicon.png"
   inkscape:export-xdpi="96"
   inkscape:export-ydpi="96"
   xmlns:inkscape="http://www.inkscape.org/namespaces/inkscape"
   xmlns:sodipodi="http://sodipodi.sourceforge.net/DTD/sodipodi-0.dtd"
   xmlns="http://www.w3.org/2000/svg"
   xmlns:svg="http://www.w3.org/2000/svg">
  <sodipodi:namedview
     id="namedview1"
     pagecolor="#ffffff"
     bordercolor="#666666"
     borderopacity="1.0"
     inkscape:showpageshadow="2"
     inkscape:pageopacity="0.0"
     inkscape:pagecheckerboard="0"
     inkscape:deskcolor="#d1d1d1"
     inkscape:document-units="mm"
     inkscape:zoom="0.83205668"
     inkscape:cx="164.65224"
     inkscape:cy="141.21634"
     inkscape:window-width="1366"
     inkscape:window-height="705"
     inkscape:window-x="-8"
     inkscape:window-y="-8"
     inkscape:window-maximized="1"
     inkscape:current-layer="layer1" />
  <defs
     id="defs1" />
  <g
     inkscape:label="Layer 1"
     inkscape:groupmode="layer"
     id="layer1">
    <rect
       style="fill:#004d40;fill-opacity:1;stroke:#540000;stroke-width:3.5121;stroke-dasharray:none;stroke-opacity:1;paint-order:fill markers stroke"
       id="rect1"
       width="64.221237"
       height="64.221237"
       x="1.7560495"
       y="1.7560495" />
    <g
       id="text1"
       style="font-size:16.9333px;line-height:1.05;text-align:end;letter-spacing:0px;word-spacing:0px;text-anchor:end;stroke-width:0.264583"
       aria-label="1&#10;+ 1&#10;2">
      <path
         style="font-family:'UD デジタル 教科書体 N-R';-inkscape-font-specification:'UD デジタル 教科書体 N-R';fill:#ffffff"
         d="M 42.961701,9.9106124 V 20.799849 q 0,0.248046 -0.165364,0.421679 -0.190169,0.190168 -0.496093,0.190168 -0.355533,0 -0.55397,-0.256314 -0.107487,-0.14056 -0.107487,-0.355533 V 9.9106124 q 0,-0.2893875 0.23151,-0.4547518 0.173633,-0.1322914 0.429947,-0.1322914 0.297656,0 0.479557,0.1736325 0.1819,0.1570961 0.1819,0.4134107 z"
         id="path1" />
      <path
         style="font-family:'UD デジタル 教科書体 N-R';-inkscape-font-specification:'UD デジタル 教科書体 N-R';fill:#ffffff"
         d="m 24.821242,33.378842 v -3.993546 q 0,-0.132292 0.05788,-0.239779 0.148828,-0.256314 0.479556,-0.256314 0.289388,0 0.454752,0.206705 0.09095,0.115755 0.09095,0.289388 v 3.993546 h 2.422587 q 0.124023,0 0.231509,0.06615 0.256315,0.14056 0.256315,0.471288 0,0.289388 -0.206705,0.454752 -0.115755,0.09095 -0.281119,0.09095 h -2.422587 v 4.11757 q 0,0.124024 -0.06615,0.23151 -0.140559,0.256315 -0.471288,0.256315 -0.289387,0 -0.454751,-0.206705 -0.09095,-0.115755 -0.09095,-0.28112 v -4.11757 h -2.422586 q -0.132292,0 -0.23151,-0.05788 -0.256315,-0.148828 -0.256315,-0.487825 0,-0.281119 0.206706,-0.446483 0.115755,-0.09095 0.281119,-0.09095 z M 42.961701,28.467524 V 39.35676 q 0,0.248047 -0.165364,0.421679 -0.190169,0.190169 -0.496093,0.190169 -0.355533,0 -0.55397,-0.256314 -0.107487,-0.14056 -0.107487,-0.355534 V 28.467524 q 0,-0.289387 0.23151,-0.454752 0.173633,-0.132291 0.429947,-0.132291 0.297656,0 0.479557,0.173632 0.1819,0.157096 0.1819,0.413411 z"
         id="path2" />
      <path
         style="font-family:'UD デジタル 教科書体 N-R';-inkscape-font-specification:'UD デジタル 教科書体 N-R';fill:#ffffff"
         d="m 40.183582,57.194338 h 5.060146 q 0.578775,0 0.578775,0.611847 0,0.60358 -0.578775,0.60358 h -5.399143 q -0.992185,0 -0.992185,-0.909504 0,-0.314192 0.314192,-0.818553 0.760675,-1.2485 2.877338,-3.65455 1.132745,-1.289841 1.463473,-1.752861 0.653189,-0.917772 0.653189,-1.819007 0,-0.744139 -0.32246,-1.240232 -0.479556,-0.727602 -1.455206,-0.727602 -1.289841,0 -1.909957,1.273304 -0.173632,0.347265 -0.545702,0.347265 -0.198437,0 -0.405142,-0.107486 -0.281119,-0.157097 -0.281119,-0.479557 0,-0.23151 0.1819,-0.545702 0.496093,-0.901235 1.413865,-1.33945 0.719334,-0.347265 1.562692,-0.347265 1.422133,0 2.273758,0.909503 0.810285,0.859894 0.810285,2.273759 0,1.157549 -0.909503,2.372977 -0.438215,0.578775 -1.85208,2.133199 -1.231964,1.347718 -2.538341,3.216335 z"
         id="path3" />
    </g>
    <path
       style="fill:#ffffff;stroke:#ffffff;stroke-width:1.05833;stroke-linecap:butt;stroke-linejoin:miter;stroke-dasharray:none;stroke-opacity:1"
       d="M 11.76656,43.246251 H 55.966773"
       id="path4" />
  </g>
</svg>
