<?xml version="1.0" encoding="UTF-8" standalone="no"?>
<!-- Created with Inkscape (http://www.inkscape.org/) -->

<svg
   width="25"
   height="45"
   viewBox="0 0 6.614583 11.90625"
   version="1.1"
   id="svg1"
   inkscape:version="1.3 (0e150ed6c4, 2023-07-21)"
   sodipodi:docname="red-5.svg"
   xmlns:inkscape="http://www.inkscape.org/namespaces/inkscape"
   xmlns:sodipodi="http://sodipodi.sourceforge.net/DTD/sodipodi-0.dtd"
   xmlns="http://www.w3.org/2000/svg"
   xmlns:svg="http://www.w3.org/2000/svg">
  <sodipodi:namedview
     id="namedview1"
     pagecolor="#ffffff"
     bordercolor="#666666"
     borderopacity="1.0"
     inkscape:showpageshadow="2"
     inkscape:pageopacity="0.0"
     inkscape:pagecheckerboard="0"
     inkscape:deskcolor="#d1d1d1"
     inkscape:document-units="mm"
     inkscape:zoom="4"
     inkscape:cx="82.5"
     inkscape:cy="36.375"
     inkscape:window-width="1366"
     inkscape:window-height="705"
     inkscape:window-x="-8"
     inkscape:window-y="-8"
     inkscape:window-maximized="1"
     inkscape:current-layer="layer1" />
  <defs
     id="defs1" />
  <g
     inkscape:label="Layer 1"
     inkscape:groupmode="layer"
     id="layer1"
     transform="translate(-4.6636251,-6.4064988)">
    <path
       style="font-size:9.87778px;line-height:1.25;font-family:'BIZ UDゴシック';-inkscape-font-specification:'BIZ UDゴシック';text-align:center;letter-spacing:0px;word-spacing:0px;text-anchor:middle;fill:#ff0000;stroke-width:0.264583"
       d="M 6.4781569,8.351598 H 9.5794325 V 9.1040071 H 7.2064502 L 7.0521099,11.858017 h 0.038585 q 0.3665582,-0.540191 1.0466202,-0.540191 0.7909941,0 1.2829538,0.757232 0.4340822,0.670416 0.4340822,1.774914 0,0.974273 -0.3665583,1.649512 -0.5450142,1.003212 -1.6205732,1.003212 -1.0466203,0 -1.7749136,-0.897103 L 6.555327,15.03164 q 0.5691299,0.709 1.3167158,0.709 0.4485515,0 0.7572322,-0.405143 0.395497,-0.535368 0.395497,-1.509641 0,-0.790994 -0.2459799,-1.278131 -0.2845649,-0.56913 -0.8054635,-0.56913 -0.3424425,0 -0.6414769,0.299035 -0.2315105,0.23151 -0.3617351,0.598068 L 6.2611158,12.740651 Z"
       id="text1"
       aria-label="5" />
  </g>
</svg>
