<?xml version="1.0" encoding="UTF-8" standalone="no"?>
<!-- Created with Inkscape (http://www.inkscape.org/) -->

<svg
   width="25"
   height="45"
   viewBox="0 0 6.614583 11.90625"
   version="1.1"
   id="svg1"
   inkscape:version="1.3 (0e150ed6c4, 2023-07-21)"
   sodipodi:docname="2.svg"
   xmlns:inkscape="http://www.inkscape.org/namespaces/inkscape"
   xmlns:sodipodi="http://sodipodi.sourceforge.net/DTD/sodipodi-0.dtd"
   xmlns="http://www.w3.org/2000/svg"
   xmlns:svg="http://www.w3.org/2000/svg">
  <sodipodi:namedview
     id="namedview1"
     pagecolor="#ffffff"
     bordercolor="#666666"
     borderopacity="1.0"
     inkscape:showpageshadow="2"
     inkscape:pageopacity="0.0"
     inkscape:pagecheckerboard="0"
     inkscape:deskcolor="#d1d1d1"
     inkscape:document-units="mm"
     inkscape:zoom="4"
     inkscape:cx="82.625"
     inkscape:cy="36.375"
     inkscape:window-width="1366"
     inkscape:window-height="705"
     inkscape:window-x="-8"
     inkscape:window-y="-8"
     inkscape:window-maximized="1"
     inkscape:current-layer="layer1" />
  <defs
     id="defs1" />
  <g
     inkscape:label="Layer 1"
     inkscape:groupmode="layer"
     id="layer1"
     transform="translate(-4.6636251,-6.4064988)">
    <path
       style="-inkscape-font-specification:'BIZ UDゴシック';stroke-width:0.264583"
       d="M 6.15983,16.353179 V 15.60077 Q 6.304524,14.727782 6.7241367,13.985019 7.0617562,13.386951 7.7177025,12.60078 L 7.915451,12.359623 q 0.5546605,-0.665593 0.7234702,-0.950158 0.3038575,-0.520898 0.3038575,-1.114144 0,-0.4726669 -0.1832791,-0.8102863 -0.2942112,-0.5401911 -0.8826337,-0.5401911 -0.7909941,0 -1.2636613,1.0466203 l -0.573953,-0.463021 q 0.2266873,-0.5305448 0.6125381,-0.858518 0.5546605,-0.467844 1.2684844,-0.467844 0.964627,0 1.4903487,0.7282933 0.3906739,0.5401911 0.3906739,1.3263618 0,0.728294 -0.3954971,1.446941 -0.096463,0.173633 -0.7475858,0.926042 -0.067524,0.07717 -0.1881023,0.226687 l -0.2459799,0.294211 q -0.5691299,0.680062 -0.8729874,1.326362 -0.32315,0.670416 -0.3424425,1.085205 h 2.8456495 v 0.790995 z"
       id="text1"
       aria-label="2" />
  </g>
</svg>
