<?xml version="1.0" encoding="UTF-8" standalone="no"?>
<!-- Created with Inkscape (http://www.inkscape.org/) -->

<svg
   width="25"
   height="45"
   viewBox="0 0 6.614583 11.90625"
   version="1.1"
   id="svg1"
   inkscape:version="1.3 (0e150ed6c4, 2023-07-21)"
   sodipodi:docname="6.svg"
   xmlns:inkscape="http://www.inkscape.org/namespaces/inkscape"
   xmlns:sodipodi="http://sodipodi.sourceforge.net/DTD/sodipodi-0.dtd"
   xmlns="http://www.w3.org/2000/svg"
   xmlns:svg="http://www.w3.org/2000/svg">
  <sodipodi:namedview
     id="namedview1"
     pagecolor="#ffffff"
     bordercolor="#666666"
     borderopacity="1.0"
     inkscape:showpageshadow="2"
     inkscape:pageopacity="0.0"
     inkscape:pagecheckerboard="0"
     inkscape:deskcolor="#d1d1d1"
     inkscape:document-units="mm"
     inkscape:zoom="4"
     inkscape:cx="82.625"
     inkscape:cy="36.375"
     inkscape:window-width="1366"
     inkscape:window-height="705"
     inkscape:window-x="-8"
     inkscape:window-y="-8"
     inkscape:window-maximized="1"
     inkscape:current-layer="layer1" />
  <defs
     id="defs1" />
  <g
     inkscape:label="Layer 1"
     inkscape:groupmode="layer"
     id="layer1"
     transform="translate(-4.6636251,-6.4064988)">
    <path
       style="font-size:9.87778px;line-height:1.25;font-family:'BIZ UDゴシック';-inkscape-font-specification:'BIZ UDゴシック';text-align:center;letter-spacing:0px;word-spacing:0px;text-anchor:middle;stroke-width:0.264583"
       d="m 6.9218853,12.26316 q 0.2266873,-0.467844 0.5980687,-0.718647 0.3327963,-0.226687 0.6945314,-0.226687 0.7138239,0 1.1961374,0.631831 0.5353679,0.699354 0.5353679,1.84726 0,1.2926 -0.5257217,2.01607 -0.5064291,0.699355 -1.3070695,0.699355 -0.9742732,0 -1.5096411,-1.017681 -0.4823135,-0.921219 -0.4823135,-2.696133 0,-1.543403 0.8536948,-2.8842343 Q 7.7128793,8.7567414 8.8077309,8.206904 L 9.1742892,8.8194421 Q 8.2048391,9.3306944 7.5440696,10.386961 6.984586,11.279241 6.8833002,12.26316 Z m 1.2009605,-0.303857 q -0.4967829,0 -0.8151098,0.602892 -0.2797418,0.535368 -0.2797418,1.21543 0,0.795817 0.2797418,1.398709 0.2700956,0.593245 0.8151098,0.593245 0.4630209,0 0.7138239,-0.506429 0.2797419,-0.564307 0.2797419,-1.44694 0,-1.008035 -0.3472657,-1.485526 -0.2700956,-0.371381 -0.6463001,-0.371381 z"
       id="text1"
       aria-label="6" />
  </g>
</svg>
