<?xml version="1.0" encoding="UTF-8" standalone="no"?>
<!-- Created with Inkscape (http://www.inkscape.org/) -->

<svg
   width="25"
   height="45"
   viewBox="0 0 6.614583 11.90625"
   version="1.1"
   id="svg1"
   inkscape:version="1.3 (0e150ed6c4, 2023-07-21)"
   sodipodi:docname="9.svg"
   xmlns:inkscape="http://www.inkscape.org/namespaces/inkscape"
   xmlns:sodipodi="http://sodipodi.sourceforge.net/DTD/sodipodi-0.dtd"
   xmlns="http://www.w3.org/2000/svg"
   xmlns:svg="http://www.w3.org/2000/svg">
  <sodipodi:namedview
     id="namedview1"
     pagecolor="#ffffff"
     bordercolor="#666666"
     borderopacity="1.0"
     inkscape:showpageshadow="2"
     inkscape:pageopacity="0.0"
     inkscape:pagecheckerboard="0"
     inkscape:deskcolor="#d1d1d1"
     inkscape:document-units="mm"
     inkscape:zoom="4"
     inkscape:cx="82.625"
     inkscape:cy="36.375"
     inkscape:window-width="1366"
     inkscape:window-height="705"
     inkscape:window-x="-8"
     inkscape:window-y="-8"
     inkscape:window-maximized="1"
     inkscape:current-layer="layer1" />
  <defs
     id="defs1" />
  <g
     inkscape:label="Layer 1"
     inkscape:groupmode="layer"
     id="layer1"
     transform="translate(-4.6636251,-6.4064988)">
    <path
       style="font-size:9.87778px;line-height:1.25;font-family:'BIZ UDゴシック';-inkscape-font-specification:'BIZ UDゴシック';text-align:center;letter-spacing:0px;word-spacing:0px;text-anchor:middle;stroke-width:0.264583"
       d="m 8.9717175,12.658657 q -0.1495172,0.347266 -0.3810276,0.545015 -0.3954971,0.347265 -0.9163956,0.347265 -0.7090008,0 -1.181668,-0.670415 -0.4823135,-0.680062 -0.4823135,-1.871377 0,-1.3022461 0.5257217,-2.0739477 0.501606,-0.7379396 1.326362,-0.7379396 0.9549807,0 1.466233,0.9887427 0.4726672,0.9163956 0.4726672,2.7443636 0,2.315105 -0.8199329,3.366548 -0.7331165,0.940511 -2.1800569,1.345655 L 6.4154561,15.976974 Q 7.736995,15.629708 8.3157712,14.882122 8.9427787,14.076659 9.0151257,12.658657 Z M 7.8623965,8.9303742 q -0.3279731,0 -0.5787761,0.2700956 Q 6.839892,9.673137 6.839892,10.941621 q 0,0.805464 0.2363336,1.345655 0.2604492,0.583599 0.7379396,0.583599 0.4196127,0 0.7090008,-0.434082 0.096463,-0.144694 0.2025716,-0.429259 0.178456,-0.487136 0.178456,-0.96945 0,-0.776525 -0.2556261,-1.4662329 Q 8.5183429,9.2294086 8.2434242,9.0509526 8.0649682,8.9303742 7.8623965,8.9303742 Z"
       id="text1"
       aria-label="9" />
  </g>
</svg>
