<?xml version="1.0" encoding="UTF-8" standalone="no"?>
<!-- Created with Inkscape (http://www.inkscape.org/) -->

<svg
   width="25"
   height="45"
   viewBox="0 0 6.614583 11.90625"
   version="1.1"
   id="svg1"
   inkscape:version="1.3 (0e150ed6c4, 2023-07-21)"
   sodipodi:docname="red-div.svg"
   xmlns:inkscape="http://www.inkscape.org/namespaces/inkscape"
   xmlns:sodipodi="http://sodipodi.sourceforge.net/DTD/sodipodi-0.dtd"
   xmlns="http://www.w3.org/2000/svg"
   xmlns:svg="http://www.w3.org/2000/svg">
  <sodipodi:namedview
     id="namedview1"
     pagecolor="#ffffff"
     bordercolor="#666666"
     borderopacity="1.0"
     inkscape:showpageshadow="2"
     inkscape:pageopacity="0.0"
     inkscape:pagecheckerboard="0"
     inkscape:deskcolor="#d1d1d1"
     inkscape:document-units="mm"
     inkscape:zoom="5.6568542"
     inkscape:cx="73.715883"
     inkscape:cy="39.332815"
     inkscape:window-width="1366"
     inkscape:window-height="705"
     inkscape:window-x="-8"
     inkscape:window-y="-8"
     inkscape:window-maximized="1"
     inkscape:current-layer="layer1" />
  <defs
     id="defs1" />
  <g
     inkscape:label="Layer 1"
     inkscape:groupmode="layer"
     id="layer1"
     transform="translate(-4.6636251,-6.4064988)">
    <path
       style="font-size:9.87778px;line-height:1.25;font-family:'BIZ UDゴシック';-inkscape-font-specification:'BIZ UDゴシック';text-align:center;letter-spacing:0px;word-spacing:0px;text-anchor:middle;fill:#ff0000;stroke-width:0.264583"
       d="M 4.7466515,12.026827 H 11.26753 V 12.67795 H 4.7466515 Z M 8.0070906,9.3692795 q 0.1736328,0 0.3279731,0.096463 0.284565,0.1832791 0.284565,0.5160754 0,0.2411564 -0.1688097,0.4196124 -0.178456,0.192926 -0.4437284,0.192926 -0.1543403,0 -0.2893881,-0.07235 -0.32315,-0.178456 -0.32315,-0.5401914 0,-0.2797418 0.2122179,-0.4630209 0.1736328,-0.1495172 0.4003202,-0.1495172 z m 0,4.7411415 q 0.1736328,0 0.3279731,0.101286 0.284565,0.178456 0.284565,0.511252 0,0.241157 -0.1688097,0.419613 -0.178456,0.192925 -0.4437284,0.192925 -0.1543403,0 -0.2893881,-0.07235 -0.32315,-0.173633 -0.32315,-0.540191 0,-0.279742 0.2122179,-0.463021 0.1736328,-0.149517 0.4003202,-0.149517 z"
       id="text1"
       aria-label="÷" />
  </g>
</svg>
